<svg width="18" height="20" viewBox="0 0 18 20" fill="none" xmlns="http://www.w3.org/2000/svg">
<path d="M0.915334 0.188759C1.23957 -0.0449367 1.67182 -0.0631242 2.01454 0.142509L17.0145 9.14251C17.3157 9.32323 17.5 9.64874 17.5 10C17.5 10.3513 17.3157 10.6768 17.0145 10.8575L2.01454 19.8575C1.67182 20.0631 1.23957 20.0449 0.915334 19.8112C0.591098 19.5775 0.437155 19.1732 0.523857 18.7831L2.25343 11L7.5 11C8.05228 11 8.5 10.5523 8.5 10C8.5 9.44772 8.05228 9 7.5 9L2.25343 9L0.523857 1.21693C0.437155 0.826771 0.591098 0.422456 0.915334 0.188759Z" fill="white"/>
</svg>
