<svg width="18" height="18" viewBox="0 0 18 18" fill="none" xmlns="http://www.w3.org/2000/svg">
<path fill-rule="evenodd" clip-rule="evenodd" d="M12.8756 4.39169H13.0553C15.4167 4.39169 17.3332 6.26669 17.3332 8.56669V13.1667C17.3332 15.4667 15.4167 17.3334 13.0553 17.3334H4.9444C2.583 17.3334 0.666504 15.4667 0.666504 13.1667V8.56669C0.666504 6.26669 2.583 4.39169 4.9444 4.39169H5.12407C5.14118 3.39169 5.5433 2.45835 6.27054 1.75835C7.00634 1.05002 7.94748 0.691687 9.00839 0.666687C11.1302 0.666687 12.8499 2.33335 12.8756 4.39169ZM7.16891 2.65002C6.68979 3.11669 6.42456 3.73335 6.40745 4.39169H11.5923C11.5666 3.02502 10.4201 1.91669 9.00841 1.91669C8.34961 1.91669 7.66515 2.17502 7.16891 2.65002ZM12.251 7.60002C12.6104 7.60002 12.8927 7.31669 12.8927 6.97502V6.00835C12.8927 5.66669 12.6104 5.38335 12.251 5.38335C11.9002 5.38335 11.6093 5.66669 11.6093 6.00835V6.97502C11.6093 7.31669 11.9002 7.60002 12.251 7.60002ZM6.3133 6.97502C6.3133 7.31669 6.03096 7.60002 5.67162 7.60002C5.32083 7.60002 5.02993 7.31669 5.02993 6.97502V6.00835C5.02993 5.66669 5.32083 5.38335 5.67162 5.38335C6.03096 5.38335 6.3133 5.66669 6.3133 6.00835V6.97502Z" fill="#5142FC"/>
</svg>
