<svg width="19" height="20" viewBox="0 0 19 20" fill="none" xmlns="http://www.w3.org/2000/svg">
<path d="M2.13295 0.00947145C1.97955 -0.0183801 1.82127 0.0159949 1.69326 0.105057C1.56529 0.194159 1.47807 0.330604 1.451 0.484198L0.82959 4.00842L12.6528 1.92365L2.13295 0.00947145Z" fill="#5142FC"/>
<path d="M18.9912 16.8704L16.5493 3.02157C16.4931 2.7029 16.1893 2.49024 15.8705 2.5463L2.02166 4.98821C1.70299 5.04438 1.49017 5.34829 1.54635 5.66696L3.98826 19.5158C4.01525 19.6689 4.10193 19.8049 4.22923 19.8941C4.32841 19.9635 4.44587 20 4.56533 20C4.59919 20 4.63326 19.9971 4.66704 19.9911L18.5159 17.5492C18.6689 17.5223 18.805 17.4356 18.8941 17.3083C18.9833 17.181 19.0182 17.0235 18.9912 16.8704ZM4.66845 9.8763C4.61228 9.55763 4.82509 9.25372 5.14376 9.19755L14.3764 7.56958C14.6953 7.51341 14.999 7.72618 15.0552 8.04485C15.1113 8.36352 14.8985 8.66743 14.5798 8.7236L5.34724 10.3516C5.31282 10.3577 5.27857 10.3606 5.24482 10.3606C4.96579 10.3606 4.71857 10.1606 4.66845 9.8763ZM12.3163 13.8826L6.16122 14.9679C6.12681 14.974 6.09255 14.9769 6.0588 14.9769C5.77978 14.9769 5.53255 14.7769 5.48243 14.4926C5.42626 14.1739 5.63907 13.87 5.95775 13.8138L12.1128 12.7285C12.4317 12.6723 12.7354 12.8851 12.7916 13.2038C12.8477 13.5225 12.6349 13.8264 12.3163 13.8826ZM14.9868 11.0318L5.75419 12.6597C5.71978 12.6658 5.68552 12.6687 5.65177 12.6687C5.37275 12.6687 5.12552 12.4687 5.0754 12.1844C5.01923 11.8658 5.23204 11.5618 5.55071 11.5057L14.7833 9.8777C15.1022 9.82153 15.4059 10.0343 15.4621 10.353C15.5183 10.6717 15.3055 10.9756 14.9868 11.0318Z" fill="#5142FC"/>
</svg>
