<svg width="16" height="21" viewBox="0 0 16 21" fill="none" xmlns="http://www.w3.org/2000/svg">
<path d="M11.5018 14.208L12.7719 12.0081C15.6056 7.09999 15.241 2.93672 14.9644 1.41039C14.9351 1.24485 14.8342 1.10183 14.6899 1.01705C14.5447 0.932506 14.3707 0.916005 14.2117 0.971336C12.7383 1.48437 8.90813 3.22727 6.07185 8.13984L4.80142 10.3403L4.23711 10.3794C3.14896 10.4556 2.16906 11.0678 1.6233 12.0131L0.107343 14.6388C0.0175629 14.7943 0.0203742 14.9876 0.114687 15.1409C0.209878 15.294 0.381355 15.3818 0.560862 15.3695L2.38816 15.2526C2.90103 15.2202 3.41204 15.3391 3.85737 15.5962L4.82773 16.1565L4.09308 17.4289C3.95793 17.663 4.03802 17.9619 4.27155 18.0968L5.04851 18.5454C5.28205 18.6802 5.58096 18.6001 5.71611 18.366L6.45076 17.0935L7.42057 17.6535C7.8659 17.9106 8.22557 18.2929 8.45358 18.7552L9.26515 20.395C9.34425 20.5566 9.50608 20.6612 9.68622 20.6671C9.86613 20.6721 10.035 20.5779 10.1248 20.4223L11.6407 17.7966C12.1858 16.8525 12.2255 15.6974 11.7486 14.7162L11.5018 14.208ZM10.142 8.82732C9.33605 8.36201 9.05917 7.33044 9.52448 6.5245C9.99011 5.718 11.0216 5.44256 11.8275 5.90787C12.6329 6.37286 12.9101 7.40387 12.4445 8.21037C11.9792 9.01631 10.9474 9.29231 10.142 8.82732Z" fill="white"/>
</svg>
