<svg width="21" height="21" viewBox="0 0 21 21" fill="none" xmlns="http://www.w3.org/2000/svg">
<path d="M0.00195312 10.0636C0.00311667 15.0133 3.58036 19.2277 8.43895 20.0034V12.9714H5.90195V10.0636H8.44195V7.85005C8.32841 6.80118 8.68447 5.75583 9.41359 4.99753C10.1427 4.23923 11.1693 3.84657 12.215 3.92605C12.9655 3.93824 13.7141 4.0055 14.455 4.12728V6.60141H13.191C12.7558 6.54407 12.3183 6.68867 12.0017 6.99449C11.6851 7.3003 11.5237 7.73423 11.563 8.17404V10.0636H14.334L13.891 12.9724H11.563V20.0034C16.8174 19.1679 20.502 14.3395 19.9475 9.01626C19.3929 3.69299 14.7932 -0.261648 9.48078 0.0173077C4.16831 0.296264 0.0027976 4.71116 0.00195312 10.0636Z" fill="white"/>
</svg>
