<svg width="18" height="18" viewBox="0 0 18 18" fill="none" xmlns="http://www.w3.org/2000/svg">
<path d="M9.20933 7.35809V10.8365H14.1483C13.6887 13.0469 11.7644 14.317 9.20933 14.317C6.2333 14.2769 3.84224 11.9062 3.84224 8.9955C3.84224 6.08482 6.2333 3.7141 9.20933 3.67404C10.4464 3.67259 11.6453 4.09241 12.6003 4.8614L15.28 2.24074C12.2061 -0.402031 7.71692 -0.741943 4.26368 1.40661C0.810443 3.55516 -0.776892 7.6758 0.368424 11.5185C1.51374 15.3612 5.11645 18.0024 9.20933 18C13.8134 18 18 14.7252 18 8.995C17.9929 8.44328 17.9238 7.89401 17.7939 7.35708L9.20933 7.35809Z" fill="white"/>
</svg>
