<svg width="18" height="16" viewBox="0 0 18 16" fill="none" xmlns="http://www.w3.org/2000/svg">
<path fill-rule="evenodd" clip-rule="evenodd" d="M13.8077 4.98483H17.3337C17.3337 2.15383 15.6374 0.5 12.7633 0.5H5.23736C2.36329 0.5 0.666992 2.15383 0.666992 4.94872V11.0513C0.666992 13.8462 2.36329 15.5 5.23736 15.5H12.7633C15.6374 15.5 17.3337 13.8462 17.3337 11.0513V10.7913H13.8077C12.1713 10.7913 10.8448 9.49793 10.8448 7.9025C10.8448 6.30707 12.1713 5.01372 13.8077 5.01372V4.98483ZM13.8077 6.22701H16.7114C17.0551 6.22701 17.3337 6.49861 17.3337 6.83365V8.94247C17.3297 9.27588 17.0534 9.54521 16.7114 9.54911H13.8744C13.046 9.55998 12.3216 9.00698 12.1337 8.22027C12.0396 7.73191 12.1717 7.22797 12.4946 6.84351C12.8174 6.45906 13.2981 6.2334 13.8077 6.22701ZM13.9337 8.44415H14.2077C14.5596 8.44415 14.8448 8.16608 14.8448 7.82306C14.8448 7.48004 14.5596 7.20197 14.2077 7.20197H13.9337C13.7654 7.20004 13.6033 7.26387 13.4837 7.3792C13.364 7.49453 13.2966 7.65177 13.2966 7.81584C13.2966 8.16005 13.5806 8.44019 13.9337 8.44415ZM4.61513 4.98483H9.31884C9.67066 4.98483 9.95587 4.70676 9.95587 4.36375C9.95587 4.02073 9.67066 3.74266 9.31884 3.74266H4.61513C4.26618 3.74263 3.98215 4.01633 3.9781 4.35652C3.97807 4.70073 4.26211 4.98088 4.61513 4.98483Z" fill="white"/>
</svg>
